<svg width="103" height="43" viewBox="0 0 103 43" fill="none" xmlns="http://www.w3.org/2000/svg">
<path d="M0.232531 43V37.42C2.79253 35.3 5.27253 33.2 7.67253 31.12C10.1125 29.04 12.2725 26.98 14.1525 24.94C16.0725 22.9 17.5925 20.92 18.7125 19C19.8725 17.04 20.4525 15.14 20.4525 13.3C20.4525 11.58 19.9725 10.06 19.0125 8.74C18.0925 7.42 16.5525 6.76 14.3925 6.76C12.1925 6.76 10.5325 7.48 9.41253 8.92C8.29253 10.36 7.73253 12.1 7.73253 14.14H0.292531C0.372531 11.06 1.05253 8.5 2.33253 6.46C3.61253 4.38 5.31253 2.84 7.43253 1.84C9.55253 0.799999 11.9325 0.279999 14.5725 0.279999C18.8525 0.279999 22.1725 1.46 24.5325 3.82C26.9325 6.14 28.1325 9.16 28.1325 12.88C28.1325 15.2 27.5925 17.46 26.5125 19.66C25.4725 21.86 24.0925 23.98 22.3725 26.02C20.6525 28.06 18.7925 29.98 16.7925 31.78C14.7925 33.54 12.8525 35.18 10.9725 36.7H29.1525V43H0.232531ZM54.7025 43V35.2H34.0025V29.08L53.6825 0.999997H62.3825V28.54H67.9025V35.2H62.3825V43H54.7025ZM42.2225 28.54H55.1825V9.46L42.2225 28.54ZM73.72 28.84V22.42H85V12.04H91.54V22.42H102.76V28.84H91.54V39.22H85V28.84H73.72Z" fill="#486284"/>
</svg>
