<svg width="149" height="32" viewBox="0 0 149 32" fill="none" xmlns="http://www.w3.org/2000/svg">
<path d="M137.788 25.4962C137.788 23.4222 139.472 21.7396 141.545 21.7396C143.619 21.7396 145.3 23.4222 145.3 25.4962C145.3 27.5701 143.619 29.2516 141.545 29.2516C139.472 29.2516 137.788 27.5701 137.788 25.4962Z" fill="#486284"/>
<path d="M17.9871 15.5442C17.9871 13.1648 17.5274 11.3996 16.6078 10.2496C15.6871 9.10068 14.2924 8.52675 12.4175 8.52675H10.423V23.0769H11.9489C14.0316 23.0769 15.5577 22.4594 16.5295 21.2203C17.5001 19.9834 17.9871 18.0909 17.9871 15.5442ZM25.1001 15.2964C25.1001 19.6312 23.9349 22.9714 21.6044 25.3159C19.274 27.6616 15.998 28.8345 11.7751 28.8345H3.56958V2.85938H12.3479C16.4196 2.85938 19.5631 3.92568 21.7783 6.05721C23.9925 8.18982 25.1001 11.2681 25.1001 15.2964Z" fill="#486284"/>
<path d="M47.8301 28.839H54.3595V2.75525H47.8301V28.839Z" fill="#486284"/>
<path d="M63.5282 19.1027C63.5282 20.7658 63.7455 22.0342 64.1793 22.906C64.6141 23.7788 65.3422 24.2147 66.3662 24.2147C67.3792 24.2147 68.0955 23.7788 68.5129 22.906C68.9303 22.0342 69.1379 20.7658 69.1379 19.1027C69.1379 17.4484 68.927 16.2005 68.5042 15.3581C68.0803 14.5136 67.3576 14.0907 66.3326 14.0907C65.3304 14.0907 64.6141 14.5114 64.1793 15.3484C63.7455 16.1864 63.5282 17.4375 63.5282 19.1027ZM75.7837 19.1027C75.7837 22.2712 74.9531 24.743 73.2879 26.5147C71.6238 28.2875 69.2945 29.1745 66.2999 29.1745C63.4282 29.1745 61.1422 28.2679 59.4455 26.4549C57.7466 24.6418 56.8977 22.1919 56.8977 19.1027C56.8977 15.944 57.7293 13.4896 59.3945 11.7396C61.0597 9.98962 63.3944 9.11462 66.401 9.11462C68.2586 9.11462 69.9021 9.52008 71.3261 10.3299C72.751 11.1397 73.8511 12.2994 74.6239 13.8103C75.3978 15.319 75.7837 17.0842 75.7837 19.1027Z" fill="#486284"/>
<path d="M78.377 28.8335H84.9074V18.8508V9.45837H78.377V28.8335Z" fill="#486284"/>
<path d="M78.377 7.11631H84.9074V2.75H78.377V7.11631Z" fill="#486284"/>
<path d="M98.1378 23.8938C99.0194 23.8938 100.069 23.6699 101.294 23.2253V28.1003C100.414 28.4872 99.577 28.7644 98.7813 28.9286C97.9856 29.0949 97.0519 29.1775 95.9834 29.1775C93.791 29.1775 92.2106 28.6264 91.2399 27.5264C90.2736 26.4264 89.7888 24.7373 89.7888 22.4579V14.4709H87.502V9.4622H89.7888V4.51435L96.3694 3.36975V9.4622H100.536V14.4709H96.3694V22.0122C96.3694 23.2666 96.9596 23.8938 98.1378 23.8938Z" fill="#486284"/>
<path d="M113.253 23.8938C114.135 23.8938 115.185 23.6699 116.41 23.2253V28.1003C115.531 28.4872 114.693 28.7644 113.897 28.9286C113.1 29.0949 112.17 29.1775 111.099 29.1775C108.907 29.1775 107.326 28.6264 106.358 27.5264C105.389 26.4264 104.905 24.7373 104.905 22.4579V14.4709H102.616V9.4622H104.905V4.43936L111.484 3.36975V9.4622H115.652V14.4709H111.484V22.0122C111.484 23.2666 112.074 23.8938 113.253 23.8938Z" fill="#486284"/>
<path d="M124.654 16.7418C124.743 15.6809 125.047 14.9038 125.564 14.407C126.084 13.9114 126.725 13.6636 127.492 13.6636C128.329 13.6636 128.995 13.9418 129.488 14.5027C129.985 15.0603 130.244 15.807 130.264 16.7418H124.654ZM133.863 11.3984C132.311 9.87661 130.109 9.11462 127.26 9.11462C124.265 9.11462 121.961 9.98962 120.346 11.7396C118.732 13.4896 117.924 16.0005 117.924 19.2723C117.924 22.4408 118.797 24.8842 120.538 26.5995C122.28 28.3147 124.727 29.1734 127.878 29.1734C129.391 29.1734 130.694 29.0702 131.785 28.8647C132.87 28.6615 133.92 28.294 134.938 27.7636L133.935 23.3973C133.195 23.6995 132.49 23.9321 131.825 24.0853C130.864 24.3082 129.81 24.4201 128.662 24.4201C127.403 24.4201 126.41 24.1125 125.682 23.4973C124.953 22.881 124.565 22.031 124.521 20.9484H136.192V17.9734C136.192 15.1114 135.416 12.919 133.863 11.3984Z" fill="#486284"/>
<path d="M33.7637 16.7418C33.8528 15.6809 34.156 14.9038 34.6734 14.407C35.1919 13.9114 35.8344 13.6636 36.6029 13.6636C37.4377 13.6636 38.1028 13.9418 38.5975 14.5027C39.0941 15.0603 39.3518 15.807 39.3747 16.7418H33.7637ZM42.9735 11.3984C41.4203 9.87661 39.2191 9.11462 36.3692 9.11462C33.3734 9.11462 31.0701 9.98962 29.4559 11.7396C27.8418 13.4896 27.0332 16.0005 27.0332 19.2723C27.0332 22.4408 27.905 24.8842 29.6485 26.5995C31.3898 28.3147 33.8365 29.1734 36.9876 29.1734C38.5007 29.1734 39.8028 29.0702 40.8941 28.8647C41.9789 28.6615 43.029 28.294 44.0486 27.7636L43.0442 23.3973C42.304 23.6995 41.5996 23.9321 40.9355 24.0853C39.9724 24.3082 38.9191 24.4201 37.7712 24.4201C36.5136 24.4201 35.5192 24.1125 34.791 23.4973C34.0616 22.881 33.6746 22.031 33.6301 20.9484H45.3018V17.9734C45.3018 15.1114 44.5257 12.919 42.9735 11.3984Z" fill="#486284"/>
</svg>
