<svg width="110" height="25" viewBox="0 0 110 25" fill="none" xmlns="http://www.w3.org/2000/svg">
<path d="M34.0989 4.26359C33.6962 2.76449 32.5103 1.57863 31.0112 1.17589C28.3039 0.437531 17.4074 0.437531 17.4074 0.437531C17.4074 0.437531 6.51101 0.459905 3.80368 1.19827C2.30458 1.60101 1.11873 2.78686 0.715987 4.28596C-5.33452e-08 6.99329 0 12.6541 0 12.6541C0 12.6541 -5.33452e-08 18.3148 0.738362 21.0445C1.1411 22.5436 2.32696 23.7295 3.82606 24.1322C6.53338 24.8706 17.4298 24.8706 17.4298 24.8706C17.4298 24.8706 28.3262 24.8706 31.0336 24.1322C32.5327 23.7295 33.7185 22.5436 34.1213 21.0445C34.8596 18.3372 34.8596 12.6541 34.8596 12.6541C34.8596 12.6541 34.8373 6.99329 34.0989 4.26359Z" fill="#9CB0C9"/>
<path d="M22.9787 12.6541L13.9394 7.4184V17.8897L22.9787 12.6541Z" fill="white"/>
<path d="M50.5666 22.6555C49.873 22.1856 49.3807 21.4696 49.0899 20.4852C48.799 19.5007 48.6647 18.203 48.6647 16.5696V14.3545C48.6647 12.7212 48.8214 11.3787 49.157 10.3942C49.4926 9.38736 50.0072 8.67137 50.7232 8.22388C51.4392 7.77639 52.3566 7.53027 53.4977 7.53027C54.6164 7.53027 55.5337 7.75401 56.205 8.22388C56.8762 8.69375 57.3908 9.40973 57.7041 10.3942C58.0173 11.3787 58.1739 12.6988 58.1739 14.3321V16.5472C58.1739 18.1806 58.0173 19.4783 57.7041 20.4628C57.3908 21.4473 56.8986 22.1633 56.205 22.6331C55.5114 23.0806 54.5716 23.3267 53.4082 23.3267C52.1999 23.3491 51.2602 23.103 50.5666 22.6555ZM54.4374 20.2614C54.6388 19.7692 54.7283 18.9413 54.7283 17.8226V13.0568C54.7283 11.9604 54.6388 11.155 54.4374 10.6627C54.236 10.1481 53.9004 9.90198 53.4305 9.90198C52.9607 9.90198 52.6474 10.1481 52.4461 10.6627C52.2447 11.1773 52.1552 11.9604 52.1552 13.0568V17.8226C52.1552 18.9413 52.2447 19.7692 52.4237 20.2614C52.6027 20.7537 52.9383 20.9998 53.4305 20.9998C53.9004 20.9998 54.236 20.7537 54.4374 20.2614ZM103.483 16.6144V17.3975L103.572 19.6126C103.639 20.1048 103.751 20.4628 103.93 20.6865C104.109 20.9103 104.4 21.0222 104.78 21.0222C105.295 21.0222 105.653 20.8208 105.832 20.418C106.033 20.0153 106.123 19.3441 106.145 18.4267L109.121 18.6057C109.143 18.7399 109.143 18.9189 109.143 19.1427C109.143 20.5523 108.763 21.6039 107.98 22.2975C107.197 22.9911 106.123 23.3491 104.713 23.3491C103.013 23.3491 101.827 22.8121 101.156 21.7605C100.484 20.7089 100.126 19.0532 100.126 16.8381V14.1308C100.126 11.8486 100.484 10.1705 101.178 9.11887C101.894 8.06726 103.102 7.53027 104.803 7.53027C105.988 7.53027 106.883 7.75401 107.51 8.17913C108.136 8.60425 108.584 9.27549 108.852 10.1928C109.121 11.1102 109.233 12.3632 109.233 13.9742V16.592H103.483V16.6144ZM103.93 10.1705C103.751 10.3942 103.639 10.7298 103.572 11.2221C103.505 11.7143 103.483 12.4527 103.483 13.4595V14.5559H105.988V13.4595C105.988 12.4751 105.966 11.7367 105.899 11.2221C105.832 10.7075 105.72 10.3495 105.541 10.1481C105.362 9.94672 105.093 9.83485 104.735 9.83485C104.355 9.85723 104.087 9.9691 103.93 10.1705ZM42.1985 16.3235L38.2829 2.18274H41.7062L43.0711 8.58187C43.4291 10.1705 43.6752 11.5129 43.8542 12.6093H43.9437C44.0556 11.8038 44.3241 10.4837 44.7268 8.60425L46.1364 2.18274H49.5597L45.5994 16.3011V23.0806H42.2209V16.3235H42.1985Z" fill="#9CB0C9"/>
<path d="M69.2718 7.82114V23.103H66.5868L66.2959 21.2235H66.2288C65.4904 22.6331 64.3941 23.3491 62.9397 23.3491C61.9329 23.3491 61.1722 23.0135 60.7023 22.3423C60.21 21.671 59.9863 20.6418 59.9863 19.2322V7.82114H63.432V19.0308C63.432 19.702 63.4991 20.1943 63.6557 20.4852C63.8124 20.776 64.0585 20.9103 64.3941 20.9103C64.685 20.9103 64.9758 20.8208 65.2443 20.6418C65.5128 20.4628 65.7142 20.2167 65.8484 19.9482V7.82114H69.2718Z" fill="#9CB0C9"/>
<path d="M86.9253 7.82114V23.103H84.2404L83.9495 21.2235H83.8824C83.144 22.6331 82.0477 23.3491 80.5933 23.3491C79.5865 23.3491 78.8257 23.0135 78.3559 22.3423C77.8636 21.671 77.6399 20.6418 77.6399 19.2322V7.82114H81.0855V19.0308C81.0855 19.702 81.1527 20.1943 81.3093 20.4852C81.4659 20.776 81.712 20.9103 82.0477 20.9103C82.3385 20.9103 82.6294 20.8208 82.8979 20.6418C83.1664 20.4628 83.3678 20.2167 83.502 19.9482V7.82114H86.9253Z" fill="#9CB0C9"/>
<path d="M78.6243 4.95719H75.201V23.103H71.8448V4.95719H68.4215V2.18274H78.602V4.95719H78.6243ZM98.2916 10.26C98.0902 9.29786 97.7546 8.60425 97.2847 8.15676C96.8149 7.73164 96.1884 7.50789 95.3605 7.50789C94.734 7.50789 94.1299 7.68689 93.5929 8.04488C93.0336 8.40288 92.6308 8.87274 92.3176 9.45448H92.2952V1.39963H88.9838V23.0806H91.8253L92.1833 21.6263H92.2505C92.519 22.1409 92.9217 22.5436 93.4363 22.8569C93.978 23.1537 94.5863 23.3077 95.2039 23.3044C96.3674 23.3044 97.2176 22.7674 97.777 21.6934C98.314 20.6194 98.6048 18.9413 98.6048 16.6815V14.265C98.6048 12.5646 98.493 11.2221 98.2916 10.26ZM95.1368 16.5025C95.1368 17.6212 95.092 18.4938 95.0025 19.1203C94.913 19.7468 94.7564 20.1943 94.5327 20.4628C94.3089 20.7313 94.018 20.8655 93.6601 20.8655C93.3692 20.8655 93.1231 20.7984 92.8769 20.6642C92.6308 20.5299 92.4518 20.3285 92.2952 20.06V11.3787C92.4071 10.9536 92.6084 10.618 92.8993 10.3495C93.1902 10.081 93.4811 9.94672 93.8167 9.94672C94.1747 9.94672 94.4432 10.081 94.6222 10.3495C94.8235 10.618 94.9354 11.0878 95.0249 11.7367C95.092 12.3856 95.1368 13.3029 95.1368 14.5111V16.5025Z" fill="#9CB0C9"/>
</svg>
