<svg width="136" height="32" viewBox="0 0 136 32" fill="none" xmlns="http://www.w3.org/2000/svg">
<g clip-path="url(#clip0_1401_2041)">
<path d="M10.8425 6.86167C9.1962 6.86167 8.83035 7.58681 8.83035 9.03711V11.5751H13.0377L12.6718 15.7447H8.83035V28.2535H3.7084V15.7447H0.232788V11.5751H3.7084V9.03711C3.7084 4.86752 5.35474 2.69208 10.1108 2.69208H13.0377V6.49909L10.8425 6.86167ZM13.4035 19.3704C13.4035 14.657 15.5986 11.2125 20.3547 11.2125C22.9157 11.2125 24.3791 12.4816 25.1108 14.1131V11.5751H30.0499V28.2535H25.1108V25.7155C24.3791 27.347 22.7328 28.6161 20.3547 28.6161C15.5986 28.6161 13.4035 25.1716 13.4035 20.4582V19.3704ZM18.5255 20.4582C18.5255 22.9962 19.4401 24.6277 21.8182 24.6277C24.1962 24.6277 24.9279 23.1775 24.9279 20.8207V19.1892C24.9279 16.8324 23.8303 15.3821 21.8182 15.3821C19.806 15.3821 18.5255 17.0137 18.5255 19.5517V20.4582ZM40.6596 11.2125C42.6718 11.2125 44.5011 11.5751 45.5986 12.3003L44.5011 15.926C43.4115 15.4308 42.224 15.1831 41.0255 15.2008C38.2816 15.2008 37.0011 16.8324 37.0011 19.5517V20.4582C37.0011 23.1775 38.2816 24.809 41.0255 24.809C42.224 24.8268 43.4115 24.5791 44.5011 24.0839L45.5986 27.7096C44.5011 28.4348 42.6718 28.7973 40.6596 28.7973C34.623 28.7973 31.8791 25.5342 31.8791 20.4582V19.733C31.8791 14.4757 34.623 11.2125 40.6596 11.2125ZM46.1474 20.6394V19.1892C46.1474 14.4757 48.8913 11.3938 54.3791 11.3938C59.8669 11.3938 61.8791 14.4757 61.8791 19.1892V21.9085H51.2694C51.4523 24.2652 52.3669 25.1716 55.2938 25.1716C58.2206 25.1716 59.1352 24.809 60.7816 24.0839L61.6962 27.5283C60.4157 28.2535 57.6718 28.7973 55.1108 28.7973C48.5255 28.6161 46.1474 25.5342 46.1474 20.6394ZM51.2694 18.464H57.4889V18.1014C57.4889 16.2886 56.7572 14.8383 54.5621 14.8383C52.3669 14.8383 51.2694 16.1073 51.2694 18.464ZM80.7206 20.4582C80.7206 25.1716 78.5255 28.6161 73.7694 28.6161C71.2084 28.6161 69.3791 27.347 68.8304 25.7155V28.2535H64.0743V3.23594L69.1962 2.69208V13.7506C69.9279 12.3003 71.5743 11.0313 73.9523 11.0313C78.7084 11.0313 80.9035 14.4757 80.9035 19.1892L80.7206 20.4582ZM75.5986 19.3704C75.5986 17.0137 74.684 15.2008 72.306 15.2008C69.9279 15.2008 69.0133 16.6511 69.0133 19.0079V20.8207C69.0133 23.1775 70.1108 24.6277 72.306 24.6277C74.5011 24.6277 75.5986 22.8149 75.5986 20.4582V19.3704ZM82.5499 20.2769V19.3704C82.5499 14.657 85.2938 11.0313 90.9645 11.0313C96.6352 11.0313 99.3791 14.4757 99.3791 19.3704V20.2769C99.3791 24.9903 96.6352 28.6161 90.9645 28.6161C85.2938 28.6161 82.5499 25.1716 82.5499 20.2769ZM94.2572 19.0079C94.2572 16.8324 93.3425 15.0196 90.9645 15.0196C88.5864 15.0196 87.6718 16.8324 87.6718 19.0079V20.6394C87.6718 22.8149 88.5864 24.6277 90.9645 24.6277C93.3425 24.6277 94.2572 22.8149 94.2572 20.6394V19.0079ZM100.843 20.2769V19.3704C100.843 14.657 103.586 11.0313 109.257 11.0313C114.928 11.0313 117.672 14.4757 117.672 19.3704V20.2769C117.672 24.9903 114.928 28.6161 109.257 28.6161C103.586 28.6161 100.843 25.1716 100.843 20.2769ZM112.55 19.0079C112.55 16.8324 111.635 15.0196 109.257 15.0196C106.879 15.0196 105.965 16.8324 105.965 19.0079V20.6394C105.965 22.8149 106.879 24.6277 109.257 24.6277C111.635 24.6277 112.55 22.8149 112.55 20.6394V19.0079ZM124.623 19.5517L129.562 11.5751H135.05L129.745 19.733L135.233 28.2535H129.928L124.623 20.0956V28.2535H119.501V3.23594L124.623 2.69208V19.5517Z" fill="#9CB0C9"/>
</g>
<defs>
<clipPath id="clip0_1401_2041">
<rect width="135" height="31" fill="white" transform="translate(0.232788 0.154053)"/>
</clipPath>
</defs>
</svg>
